Coordinates
version=1
nRows=37
nColumns=38
inDegrees=no

Units are S.I. units (second, meters, Newtons, ...)
If the header above contains a line with 'inDegrees', this indicates whether rotational values are in degrees (yes) or radians (no).

endheader
time	pelvis_tilt	pelvis_list	pelvis_rotation	pelvis_tx	pelvis_ty	pelvis_tz	hip_flexion_r	hip_adduction_r	hip_rotation_r	knee_angle_r	ankle_angle_r	subtalar_angle_r	mtp_angle_r	hip_flexion_l	hip_adduction_l	hip_rotation_l	knee_angle_l	ankle_angle_l	subtalar_angle_l	mtp_angle_l	lumbar_extension	lumbar_bending	lumbar_rotation	arm_flex_r	arm_add_r	arm_rot_r	elbow_flex_r	pro_sup_r	wrist_flex_r	wrist_dev_r	arm_flex_l	arm_add_l	arm_rot_l	elbow_flex_l	pro_sup_l	wrist_flex_l	wrist_dev_l
1.1	-0.0888778	1.22944	-1.37414	0.618113	0.697245	0.927284	-0.523599	0.108932	-0.218551	0.342855	-0.104698	0	0	-0.00561559	-0.0615161	-0.113151	0.204489	-0.265234	0	0	-0.343302	0.113291	0.24782	-0.118273	-0.737912	-0.0284213	1.59282	0.602985	0	0	0.57903	-0.509105	0.714331	1.06842	0.669918	0	0
1.11	-0.0794935	1.23192	-1.38369	0.619511	0.686392	0.926775	-0.523599	0.101306	-0.216201	0.365283	-0.112003	0	0	-0.0117033	-0.0555996	-0.11574	0.201539	-0.284923	0	0	-0.340259	0.108612	0.246517	-0.120529	-0.73262	-0.030271	1.59097	0.605597	0	0	0.579521	-0.510712	0.716138	1.06848	0.673677	0	0
1.12	-0.0697572	1.23383	-1.3937	0.620957	0.675561	0.92648	-0.523599	0.0929186	-0.213453	0.391763	-0.122477	0	0	-0.0188115	-0.0498821	-0.119504	0.197838	-0.309886	0	0	-0.338184	0.103816	0.245511	-0.123352	-0.72713	-0.0331303	1.58955	0.609013	0	0	0.579354	-0.511052	0.715936	1.06859	0.674271	0	0
1.13	-0.0599059	1.23474	-1.40325	0.622622	0.664763	0.926373	-0.523599	0.0837627	-0.211764	0.423149	-0.13565	0	0	-0.0262608	-0.0447657	-0.123566	0.197865	-0.330128	0	0	-0.337239	0.0995651	0.24416	-0.126724	-0.722832	-0.0358026	1.58887	0.612191	0	0	0.579133	-0.511242	0.715629	1.06884	0.6743	0	0
1.14	-0.0487269	1.234	-1.4134	0.624486	0.654027	0.926603	-0.523599	0.0735366	-0.211123	0.45883	-0.154843	0	0	-0.0339706	-0.0405051	-0.128109	0.204947	-0.345246	0	0	-0.33821	0.0955237	0.242249	-0.130248	-0.718915	-0.038799	1.58836	0.614906	0	0	0.578833	-0.511426	0.715094	1.06908	0.674189	0	0
1.15	-0.0360811	1.23088	-1.42435	0.626449	0.64338	0.927309	-0.523	0.0622032	-0.210956	0.498188	-0.18382	0	0	-0.0416057	-0.0370115	-0.134066	0.221097	-0.355376	0	0	-0.341779	0.0916779	0.239855	-0.133373	-0.715572	-0.0412291	1.58778	0.617725	0	0	0.579396	-0.511458	0.715767	1.0684	0.675253	0	0
1.16	-0.0244992	1.2289	-1.43377	0.628452	0.632745	0.928241	-0.511025	0.0498999	-0.20981	0.543366	-0.218844	0	0	-0.0463121	-0.0339929	-0.137598	0.239871	-0.363087	0	0	-0.343919	0.0881352	0.236759	-0.13602	-0.712224	-0.0428358	1.58619	0.619356	0	0	0.580014	-0.511506	0.717689	1.06685	0.678436	0	0
1.17	-0.0135153	1.22594	-1.44209	0.630502	0.622228	0.92943	-0.496999	0.0370513	-0.208092	0.592113	-0.259861	0	0	-0.0528194	-0.0312696	-0.136905	0.257104	-0.365714	0	0	-0.347063	0.0851463	0.233236	-0.138157	-0.709744	-0.0434372	1.58453	0.62164	0	0	0.579787	-0.510459	0.717588	1.06535	0.678292	0	0
1.18	-0.00251408	1.22197	-1.45021	0.632539	0.611885	0.930761	-0.480513	0.0235983	-0.206347	0.644508	-0.305779	0	0	-0.0616154	-0.0281862	-0.134027	0.272299	-0.361186	0	0	-0.351552	0.0822635	0.229525	-0.139878	-0.70816	-0.0436461	1.58329	0.623687	0	0	0.580441	-0.510345	0.719023	1.06495	0.678582	0	0
1.19	0.00914634	1.21794	-1.45944	0.634502	0.601726	0.9321	-0.46052	0.0094896	-0.204116	0.699379	-0.362793	0	0	-0.0710488	-0.0243275	-0.133696	0.286743	-0.352497	0	0	-0.356543	0.0790195	0.226378	-0.141776	-0.706899	-0.044687	1.58273	0.624336	0	0	0.582439	-0.511186	0.722809	1.06506	0.681408	0	0
1.2	0.0206352	1.21345	-1.46948	0.636352	0.591749	0.933414	-0.438066	-0.0046514	-0.200492	0.755385	-0.423864	0	0	-0.0821091	-0.0201968	-0.137321	0.300629	-0.342308	0	0	-0.362175	0.0757435	0.224722	-0.144308	-0.706572	-0.0463876	1.58303	0.623676	0	0	0.585389	-0.511776	0.727667	1.06486	0.683821	0	0
1.21	0.0306736	1.20866	-1.47885	0.638172	0.581967	0.934612	-0.413517	-0.0182075	-0.196202	0.81174	-0.483246	0	0	-0.095195	-0.0163176	-0.142226	0.310644	-0.332264	0	0	-0.368608	0.0727088	0.223636	-0.146798	-0.70693	-0.0488262	1.58446	0.621091	0	0	0.587509	-0.512467	0.730648	1.06689	0.680785	0	0
1.22	0.0381031	1.20385	-1.48679	0.639881	0.572352	0.935693	-0.387128	-0.0306825	-0.191054	0.868666	-0.528699	0	0	-0.10969	-0.0132301	-0.14781	0.317861	-0.322317	0	0	-0.37513	0.0707467	0.223617	-0.149275	-0.708267	-0.0513604	1.58712	0.618708	0	0	0.58941	-0.513114	0.733097	1.06916	0.676974	0	0
1.23	0.0395077	1.19125	-1.49279	0.640779	0.56344	0.937444	-0.3674	-0.0390109	-0.17982	0.922212	-0.568693	0	0	-0.134572	-0.0139838	-0.158313	0.320731	-0.31316	0	0	-0.391716	0.0697948	0.227931	-0.149365	-0.711375	-0.0538284	1.59155	0.615495	0	0	0.594366	-0.514657	0.736416	1.07266	0.672269	0	0
1.24	0.044745	1.19165	-1.49933	0.642305	0.553674	0.937998	-0.333584	-0.0506377	-0.177001	0.978272	-0.599012	0	0	-0.144714	-0.0111815	-0.161078	0.327169	-0.300724	0	0	-0.391842	0.0680855	0.227909	-0.152865	-0.712379	-0.0564102	1.595	0.612443	0	0	0.595091	-0.516148	0.739534	1.07484	0.668903	0	0
1.25	0.0432862	1.1877	-1.50137	0.643382	0.544501	0.939177	-0.304001	-0.0570832	-0.169834	1.02824	-0.62235	0	0	-0.160265	-0.0119642	-0.165802	0.330676	-0.291606	0	0	-0.397153	0.0683717	0.22944	-0.152084	-0.714027	-0.0562518	1.5967	0.610394	0	0	0.596231	-0.516938	0.740638	1.07549	0.665597	0	0
1.26	0.0398302	1.18426	-1.50183	0.644285	0.535509	0.940517	-0.273635	-0.0618482	-0.16342	1.07518	-0.641722	0	0	-0.175545	-0.0137001	-0.170578	0.3327	-0.283026	0	0	-0.402111	0.0692922	0.230969	-0.150009	-0.715459	-0.0548339	1.59751	0.608533	0	0	0.596916	-0.517191	0.74074	1.07497	0.662356	0	0
1.27	0.0345296	1.18144	-1.50001	0.645173	0.526645	0.942031	-0.243127	-0.0653348	-0.158713	1.1179	-0.645596	0	0	-0.190423	-0.0161353	-0.175325	0.332493	-0.27566	0	0	-0.406114	0.0712159	0.231781	-0.14681	-0.717003	-0.0519266	1.59714	0.606917	0	0	0.597011	-0.516537	0.739909	1.07271	0.660414	0	0
1.28	0.0265589	1.17919	-1.49462	0.646119	0.517813	0.943647	-0.213196	-0.0671213	-0.155357	1.15575	-0.630228	0	0	-0.205347	-0.0194867	-0.179037	0.329653	-0.270537	0	0	-0.408907	0.074658	0.231792	-0.143247	-0.718906	-0.0480474	1.59597	0.605167	0	0	0.596627	-0.515268	0.738689	1.06921	0.660625	0	0
1.29	0.0133621	1.1703	-1.48327	0.647033	0.509461	0.945942	-0.192373	-0.0643916	-0.151981	1.18536	-0.60175	0	0	-0.228267	-0.0261263	-0.182939	0.324393	-0.268577	0	0	-0.419206	0.0810409	0.232152	-0.138409	-0.722743	-0.0439285	1.59527	0.602026	0	0	0.598149	-0.513349	0.73777	1.06559	0.661698	0	0
1.3	0.00328908	1.16724	-1.47282	0.648155	0.500563	0.947613	-0.166831	-0.0634275	-0.15184	1.21339	-0.558056	0	0	-0.245531	-0.0311446	-0.184188	0.319229	-0.265192	0	0	-0.422094	0.0865139	0.23013	-0.135856	-0.725846	-0.0395668	1.59444	0.596864	0	0	0.596673	-0.511354	0.734567	1.06319	0.66071	0	0
1.31	-0.00747791	1.16468	-1.46055	0.649322	0.491499	0.949221	-0.142207	-0.061435	-0.152587	1.23446	-0.52957	0	0	-0.262787	-0.0365498	-0.186112	0.312545	-0.262845	0	0	-0.42377	0.0925536	0.22739	-0.134328	-0.727395	-0.0365822	1.59313	0.594555	0	0	0.595123	-0.509981	0.732485	1.0614	0.659924	0	0
1.32	-0.017448	1.16243	-1.44751	0.650649	0.48242	0.950775	-0.11842	-0.0592759	-0.154594	1.2495	-0.501452	0	0	-0.279494	-0.0415984	-0.186912	0.305462	-0.2609	0	0	-0.42472	0.0989429	0.22346	-0.133297	-0.728631	-0.0341468	1.59149	0.593245	0	0	0.593742	-0.509002	0.731354	1.05984	0.660715	0	0
1.33	-0.0268395	1.16036	-1.43394	0.652112	0.473437	0.952259	-0.0954773	-0.05689	-0.157429	1.2582	-0.476216	0	0	-0.295716	-0.0465856	-0.186649	0.298148	-0.259477	0	0	-0.425578	0.10567	0.218742	-0.132651	-0.729437	-0.0328399	1.58991	0.592623	0	0	0.59243	-0.508167	0.730426	1.05899	0.66237	0	0
1.34	-0.0356534	1.15871	-1.4201	0.653629	0.464522	0.953599	-0.0732204	-0.0543435	-0.161193	1.26103	-0.453891	0	0	-0.31146	-0.0516914	-0.185574	0.290035	-0.257852	0	0	-0.426218	0.112385	0.213277	-0.132428	-0.729959	-0.032591	1.5889	0.591854	0	0	0.590421	-0.506879	0.727684	1.0593	0.661865	0	0
1.35	-0.0439664	1.15773	-1.40635	0.655073	0.455635	0.954759	-0.0514153	-0.0515812	-0.165495	1.25853	-0.434179	0	0	-0.326181	-0.0569134	-0.18414	0.281821	-0.257188	0	0	-0.426155	0.118845	0.207318	-0.132296	-0.730341	-0.0324905	1.58825	0.591362	0	0	0.588799	-0.506417	0.725778	1.06014	0.662271	0	0
1.36	-0.0514431	1.15703	-1.39325	0.656454	0.446811	0.955741	-0.0304801	-0.0490115	-0.17014	1.25126	-0.419037	0	0	-0.339951	-0.0621016	-0.183483	0.274723	-0.256148	0	0	-0.425834	0.12488	0.2013	-0.132467	-0.730694	-0.0328221	1.58785	0.591394	0	0	0.58823	-0.506554	0.725629	1.06106	0.663574	0	0
1.37	-0.0579097	1.15672	-1.38097	0.657783	0.438066	0.95651	-0.0103209	-0.046908	-0.174993	1.24012	-0.403569	0	0	-0.352887	-0.0670363	-0.183179	0.268376	-0.25422	0	0	-0.425226	0.130429	0.194935	-0.132397	-0.73105	-0.0331922	1.58755	0.591513	0	0	0.587671	-0.506236	0.724621	1.06195	0.663476	0	0
1.38	-0.0633794	1.15688	-1.36948	0.659089	0.429324	0.957069	0.00886914	-0.0452948	-0.17971	1.22556	-0.383774	0	0	-0.36521	-0.0715779	-0.18188	0.262686	-0.251647	0	0	-0.424057	0.135583	0.188183	-0.132436	-0.731894	-0.0334296	1.58767	0.591549	0	0	0.587403	-0.50623	0.724029	1.06276	0.664264	0	0
1.39	-0.0675738	1.15702	-1.35936	0.660346	0.420584	0.957465	0.0264356	-0.0441641	-0.183895	1.20739	-0.362713	0	0	-0.377473	-0.0756624	-0.181084	0.257742	-0.248172	0	0	-0.423122	0.139966	0.181703	-0.133222	-0.733203	-0.0343123	1.58856	0.590519	0	0	0.587449	-0.505799	0.723219	1.06366	0.664349	0	0
1.4	-0.0707988	1.15713	-1.35037	0.66153	0.411838	0.957684	0.0423304	-0.0433417	-0.187402	1.18562	-0.340244	0	0	-0.389935	-0.0793586	-0.180233	0.253023	-0.244168	0	0	-0.422306	0.143845	0.175508	-0.133795	-0.734186	-0.0353294	1.58929	0.589698	0	0	0.588181	-0.505536	0.723283	1.06439	0.6656	0	0
1.41	-0.0726386	1.15707	-1.34309	0.66261	0.403104	0.957756	0.0562458	-0.0427548	-0.189776	1.1601	-0.317958	0	0	-0.402635	-0.0826021	-0.179946	0.248464	-0.239367	0	0	-0.421797	0.146879	0.169678	-0.133882	-0.734735	-0.0362459	1.58941	0.589564	0	0	0.589322	-0.504664	0.723011	1.06454	0.666856	0	0
1.42	-0.0734905	1.15724	-1.33733	0.663568	0.394382	0.957687	0.068563	-0.0421711	-0.190519	1.13039	-0.298428	0	0	-0.415136	-0.0853153	-0.179789	0.243938	-0.234812	0	0	-0.421254	0.149188	0.164394	-0.133737	-0.734935	-0.0373679	1.58922	0.589967	0	0	0.591487	-0.503979	0.724136	1.0639	0.669991	0	0
1.43	-0.0741336	1.15818	-1.33252	0.66439	0.385668	0.957473	0.0799372	-0.0415207	-0.18938	1.09653	-0.28535	0	0	-0.427008	-0.0878001	-0.179639	0.23911	-0.230732	0	0	-0.420287	0.150826	0.159885	-0.13332	-0.734375	-0.0390167	1.58852	0.590821	0	0	0.59405	-0.502726	0.725282	1.06264	0.67281	0	0
1.44	-0.0740216	1.1598	-1.32912	0.665085	0.376976	0.957149	0.0898758	-0.0410156	-0.186406	1.05784	-0.276314	0	0	-0.438333	-0.0897166	-0.179523	0.234063	-0.225494	0	0	-0.419084	0.151644	0.15611	-0.132698	-0.732772	-0.0413777	1.58735	0.592424	0	0	0.596844	-0.500688	0.726146	1.06068	0.675395	0	0
1.45	-0.0733727	1.1623	-1.32716	0.665621	0.368332	0.956701	0.0986866	-0.0399311	-0.181315	1.01417	-0.271444	0	0	-0.448563	-0.0908904	-0.179755	0.22917	-0.220702	0	0	-0.417548	0.151557	0.153448	-0.132662	-0.731109	-0.0446633	1.58641	0.594474	0	0	0.600023	-0.498128	0.727085	1.05826	0.677891	0	0
1.46	-0.0725386	1.16587	-1.32648	0.666012	0.359703	0.95611	0.106375	-0.0384615	-0.17465	0.965585	-0.26869	0	0	-0.457501	-0.0912278	-0.179626	0.22471	-0.216681	0	0	-0.415297	0.150762	0.152109	-0.13325	-0.729669	-0.048473	1.58551	0.596931	0	0	0.603376	-0.494812	0.727851	1.0552	0.680523	0	0
